<?xml version="1.0" encoding="UTF-8"?>
<svg width="32" height="32" viewBox="0 0 32 32" fill="none" xmlns="http://www.w3.org/2000/svg">
  <style>
    path { fill: #654321; }
    @media (prefers-color-scheme: dark) {
      path { fill: #FFF8DC; }
    }
  </style>
  <path d="M28 10H4C2.9 10 2 10.9 2 12V24C2 25.1 2.9 26 4 26H28C29.1 26 30 25.1 30 24V12C30 10.9 29.1 10 28 10ZM11 19H9V21H7V19H5V17H7V15H9V17H11V19ZM19 17C18.45 17 18 16.55 18 16C18 15.45 18.45 15 19 15C19.55 15 20 15.45 20 16C20 16.55 19.55 17 19 17ZM23 21C22.45 21 22 20.55 22 20C22 19.45 22.45 19 23 19C23.55 19 24 19.45 24 20C24 20.55 23.55 21 23 21Z"/>
</svg> 